<?xml version="1.0" encoding="UTF-8" standalone="no"?>
<!-- Created with Inkscape (http://www.inkscape.org/) -->

<svg
   width="32"
   height="32"
   viewBox="0 0 32 32"
   version="1.1"
   id="svg1"
   xmlns="http://www.w3.org/2000/svg"
   xmlns:svg="http://www.w3.org/2000/svg">
  <defs
     id="defs1" />
  <g
     id="layer1">
    <rect
       style="fill:none;stroke:#2e7d32;stroke-width:3.99999;stroke-dasharray:none;stroke-opacity:1"
       id="rect1"
       width="28"
       height="20"
       x="2"
       y="1.9999999"
       ry="2"
       rx="2" />
    <rect
       style="fill:#2e7d32;fill-opacity:1;stroke:none;stroke-width:4.00001;stroke-dasharray:none;stroke-opacity:1"
       id="rect2"
       width="4"
       height="12"
       x="14"
       y="20" />
    <rect
       style="fill:#2e7d32;fill-opacity:1;stroke:none;stroke-width:4;stroke-dasharray:none;stroke-opacity:1"
       id="rect3"
       width="32"
       height="4"
       x="0"
       y="28"
       ry="2"
       rx="2" />
    <path
       id="rect9"
       style="fill:#7D2E79;fill-opacity:1;stroke:none;stroke-width:0.48;stroke-dasharray:none;stroke-opacity:1"
       d="m 11.243526,5.108212 0.800782,1.3869938 -2.1384848,7.8448652 c -0.019901,0.073 -0.030375,0.146535 -0.032334,0.219387 -0.0012,0.0445 2.634e-4,0.0886 0.00531,0.132248 3.29e-5,2.85e-4 4.485e-4,5.5e-4 5e-4,8.66e-4 0.00506,0.04334 0.013445,0.08613 0.024312,0.128048 7.68e-5,2.97e-4 4.208e-4,5.65e-4 5e-4,8.66e-4 0.010908,0.0419 0.024268,0.08321 0.040643,0.123128 1.208e-4,2.96e-4 3.618e-4,5.42e-4 5e-4,8.67e-4 0.016378,0.03983 0.03527,0.07863 0.056805,0.115968 l 4.91e-4,8.46e-4 c 0.04353,0.07532 0.0971,0.144361 0.159352,0.205694 0.06225,0.06133 0.133185,0.114954 0.211586,0.157495 0.06442,0.03496 0.133942,0.06268 0.207496,0.08205 l 7.86176,2.070092 0.800782,1.386995 a 7.999999,2.0172858 60 0 0 0.363058,-1.080148 c -0.0044,-0.153537 -0.01939,-0.320918 -0.0445,-0.500912 -0.0251,-0.179997 -0.05998,-0.372808 -0.10553,-0.577316 l -0.0014,-3.65e-4 a 7.999999,2.0172858 60 0 0 -0.16229,-0.634712 5.9999996,4.0345716 60 0 0 -0.317476,-5.711993 L 19.77883,9.9953075 20.894855,9.9283175 22.126906,8.0622923 19.894855,8.1962669 19.27883,9.1292796 18.475388,9.5931475 A 5.9999996,4.0345716 60 0 0 13.687395,6.4622104 7.999999,2.0172858 60 0 0 13.218531,6.0055829 l 3.79e-4,-0.00134 C 13.20609,5.9924389 13.19526,5.9861179 13.18256,5.9744849 A 7.999999,2.0172858 60 0 0 12.555476,5.4626077 c -0.06647,-0.046623 -0.13156,-0.089488 -0.194985,-0.1287398 A 7.999999,2.0172858 60 0 0 11.243526,5.108212 Z m 1.758095,1.6935479 a 5.9999996,2.0172858 60 0 1 3.732413,3.7967611 l -5.65792,3.266601 z m -1.425507,7.9293881 5.65792,-3.266602 a 5.9999996,2.0172858 60 0 1 1.421884,5.130744 z" />
  </g>
</svg>
